<svg width="55px" height="49px" viewBox="0 0 55 49" version="1.1" xmlns="http://www.w3.org/2000/svg" xmlns:xlink="http://www.w3.org/1999/xlink">
    <path d="M52.941,26.641 L48.941,26.641 C47.837,26.641 46.941,25.746 46.941,24.641 C46.941,23.537 47.837,22.643 48.941,22.643 L52.941,22.643 C54.045,22.643 54.941,23.538 54.941,24.641 C54.941,25.746 54.045,26.641 52.941,26.641 L52.941,26.641 Z M45.084,13.329 C44.303,14.11 43.037,14.11 42.256,13.329 C41.475,12.549 41.475,11.282 42.256,10.502 L45.084,7.674 C45.865,6.893 47.131,6.893 47.912,7.674 C48.693,8.454 48.693,9.721 47.912,10.502 L45.084,13.329 L45.084,13.329 Z M42.137,28.936 L42.137,28.936 C43.886,31.022 44.943,33.706 44.943,36.641 C44.943,43.266 39.571,48.639 32.944,48.639 L16.946,48.639 C8.111,48.639 0.948,41.477 0.948,32.641 C0.948,23.805 8.111,16.643 16.946,16.643 C18.518,16.643 20.036,16.875 21.469,17.297 C23.664,14.47 27.087,12.643 30.944,12.643 C37.571,12.643 42.943,18.016 42.943,24.641 C42.942,26.156 42.649,27.602 42.137,28.936 L42.137,28.936 Z M4.947,32.641 C4.947,39.268 10.318,44.639 16.945,44.639 L32.943,44.639 C37.361,44.639 40.942,41.057 40.942,36.641 C40.942,32.223 37.361,28.641 32.943,28.641 C31.343,28.641 29.86,29.123 28.61,29.932 C27.379,24.616 22.636,20.643 16.945,20.643 C10.318,20.643 4.947,26.014 4.947,32.641 L4.947,32.641 Z M30.943,16.643 C28.731,16.643 26.728,17.541 25.281,18.992 C27.621,20.428 29.566,22.445 30.91,24.846 C31.574,24.733 32.247,24.641 32.943,24.641 C35.068,24.641 37.062,25.2 38.793,26.168 L38.793,26.168 C38.889,25.674 38.943,25.164 38.943,24.641 C38.943,20.225 35.361,16.643 30.943,16.643 L30.943,16.643 Z M30.943,8.643 C29.839,8.643 28.944,7.748 28.944,6.644 L28.944,2.645 C28.944,1.54 29.84,0.645 30.943,0.645 C32.048,0.645 32.943,1.54 32.943,2.645 L32.943,6.644 C32.943,7.749 32.049,8.643 30.943,8.643 L30.943,8.643 Z M16.803,13.329 L13.976,10.502 C13.195,9.721 13.195,8.454 13.976,7.674 C14.756,6.893 16.023,6.893 16.803,7.674 L19.631,10.502 C20.412,11.282 20.412,12.549 19.631,13.329 C18.851,14.11 17.584,14.11 16.803,13.329 L16.803,13.329 Z"/>
</svg>
