<svg width="24px" height="24px" viewBox="0 0 24 24" version="1.1" xmlns="http://www.w3.org/2000/svg" xmlns:xlink="http://www.w3.org/1999/xlink">
    <path d="M12,23.998 C5.373,23.998 0.001,18.626 0.001,12 C0.001,5.373 5.373,0.001 12,0.001 C12.755,0.001 13.491,0.079 14.207,0.213 C14.075,0.789 13.999,1.386 13.999,2.001 C13.999,6.419 17.581,10 21.999,10 C22.614,10 23.211,9.924 23.787,9.792 C23.92,10.509 23.998,11.244 23.998,12 C23.998,18.626 18.626,23.998 12,23.998 L12,23.998 Z M10.212,4.208 C6.656,5.021 4.001,8.197 4.001,12 C4.001,16.417 7.582,19.999 12,19.999 C15.802,19.999 18.978,17.344 19.791,13.788 C14.937,12.884 11.115,9.062 10.212,4.208 L10.212,4.208 Z"/>
</svg>
