<svg width="44px" height="41px" viewBox="0 0 44 41" version="1.1" xmlns="http://www.w3.org/2000/svg" xmlns:xlink="http://www.w3.org/1999/xlink">
    <path d="M41.998,32.641 L2.003,32.641 C0.899,32.641 0.003,31.745 0.003,30.641 C0.003,29.536 0.899,28.641 2.003,28.641 L41.998,28.641 C43.102,28.641 43.998,29.536 43.998,30.641 C43.998,31.744 43.103,32.641 41.998,32.641 L41.998,32.641 Z M41.998,24.641 L2.003,24.641 C0.899,24.641 0.003,23.746 0.003,22.641 C0.003,21.537 0.899,20.641 2.003,20.641 L41.998,20.641 C43.102,20.641 43.998,21.537 43.998,22.641 C43.998,23.746 43.103,24.641 41.998,24.641 L41.998,24.641 Z M31.999,12.643 C30.398,12.643 28.916,13.123 27.666,13.934 C26.434,8.617 21.692,4.643 16.001,4.643 C9.375,4.643 4.003,10.016 4.003,16.643 L0.003,16.643 C0.003,7.808 7.166,0.644 16.001,0.644 C22.005,0.644 27.23,3.956 29.966,8.848 C30.63,8.735 31.303,8.643 31.999,8.643 C37.221,8.643 41.651,11.985 43.3,16.643 L38.919,16.643 C37.535,14.253 34.958,12.643 31.999,12.643 L31.999,12.643 Z M2.003,36.639 L41.998,36.639 C43.102,36.639 43.998,37.535 43.998,38.639 C43.998,39.744 43.102,40.639 41.998,40.639 L2.003,40.639 C0.899,40.639 0.003,39.744 0.003,38.639 C0.003,37.535 0.898,36.639 2.003,36.639 L2.003,36.639 Z"/>
</svg>
