<?xml version="1.0" encoding="UTF-8"?>
<svg width="50px" height="50px" viewBox="0 0 50 50" version="1.1" xmlns="http://www.w3.org/2000/svg" xmlns:xlink="http://www.w3.org/1999/xlink">
    <!-- Generator: Sketch 41.2 (35397) - http://www.bohemiancoding.com/sketch -->
    <title>Lights Icon</title>
    <desc>Created with Sketch.</desc>
    <defs></defs>
    <g id="Symbols" stroke="none" stroke-width="1" fill="none" fill-rule="evenodd">
        <g id="Lights-Icon" fill="#FFFFFF">
            <path d="M29.8927264,41.6220956 C30.4562822,41.6220956 30.9131345,41.1652433 30.9131345,40.6016874 C30.9131345,37.3567894 31.8621141,35.1220956 34.3825223,31.2751568 C34.8570121,30.555769 35.096808,30.1833201 35.3315019,29.8261772 C37.3212978,26.7292384 38.1988488,24.5863813 38.1988488,21.8771976 C37.9976655,14.5547045 32.0036969,8.72315661 24.6784406,8.72315661 C17.3531844,8.72315661 11.3592158,14.5547045 11.1580325,21.8771976 C11.1580325,24.5863813 12.0355835,26.7343405 14.0253794,29.8312792 C14.2549713,30.1884221 14.4947672,30.555769 14.969257,31.2751568 C17.4896651,35.1271976 18.4386447,37.3618915 18.4386447,40.6016874 C18.4386447,41.1652433 18.895497,41.6220956 19.4590529,41.6220956 L29.8927264,41.6220956 Z" id="Shape"></path>
            <path d="M19.5866039,5.67311597 C19.8430218,6.1873607 20.4677673,6.39637062 20.9820121,6.1399527 C21.4962568,5.88353478 21.7052667,5.25878927 21.4488488,4.74454454 L19.3774202,0.581279234 C19.1224112,0.0670345055 18.4988078,-0.143117551 17.9845631,0.111891479 C17.4703184,0.366900509 17.2601663,0.990503893 17.5151753,1.50474862 L19.5866039,5.67311597 Z" id="Shape"></path>
            <path d="M27.9182366,4.7394425 C27.7514519,5.0739233 27.7757798,5.47197488 27.9820563,5.78365508 C28.1883328,6.09533527 28.5452196,6.27329243 28.9182808,6.25049182 C29.2913421,6.22769121 29.6239009,6.00759678 29.7906855,5.67311597 L31.8621141,1.50474862 C32.0279874,1.17209061 32.0037898,0.776209562 31.7986361,0.466230047 C31.5934825,0.156250531 31.2385406,-0.020734188 30.8675137,0.0019443226 C30.4964867,0.0246228333 30.1657425,0.243519168 29.9998692,0.576177194 L27.9182366,4.7394425 Z" id="Shape"></path>
            <path d="M36.7090529,8.43842209 C36.3763949,8.6042954 36.1574986,8.9350396 36.1348201,9.30606654 C36.1121416,9.67709348 36.2891263,10.0320354 36.5991058,10.237189 C36.9090853,10.4423426 37.3049663,10.4665403 37.6376243,10.300667 L41.8008896,8.21903434 C42.1335477,8.05316103 42.352444,7.72241683 42.3751225,7.35138989 C42.397801,6.98036294 42.2208163,6.62542106 41.9108368,6.42026742 C41.6008573,6.21511379 41.2049762,6.19091612 40.8723182,6.35678944 L36.7090529,8.43842209 Z" id="Shape"></path>
            <path d="M11.7396651,10.300667 C12.2539099,10.5570849 12.8786554,10.348075 13.1350733,9.83383025 C13.3914912,9.31958553 13.1824813,8.69484001 12.6682366,8.43842209 L8.50497126,6.35678944 C7.99072653,6.10037152 7.36598102,6.30938144 7.1095631,6.82362617 C6.85314518,7.3378709 7.0621551,7.96261642 7.57639983,8.21903434 L11.7396651,10.300667 Z" id="Shape"></path>
            <path d="M26.7804815,47.8618915 L22.596808,47.8618915 C22.0389178,47.8753404 21.5898488,48.3244095 21.5763998,48.8822996 C21.5763998,49.4458555 22.0332521,49.9027078 22.596808,49.9027078 L26.7804815,49.9027078 C27.3383717,49.8892589 27.7874407,49.4401898 27.8008896,48.8822996 C27.8008896,48.3187438 27.3440373,47.8618915 26.7804815,47.8618915 Z" id="Shape"></path>
            <path d="M28.8570121,43.7037282 L20.5202774,43.7037282 C19.9634811,43.7197226 19.5158636,44.1673401 19.4998692,44.7241364 C19.4998692,45.2876922 19.9567215,45.7445445 20.5202774,45.7445445 L28.8570121,45.7445445 C29.4138083,45.7285502 29.8614259,45.2809326 29.8774202,44.7241364 C29.8774202,44.1605805 29.4205679,43.7037282 28.8570121,43.7037282 Z" id="Shape"></path>
        </g>
    </g>
</svg>