<svg id="Layer_1" xmlns="http://www.w3.org/2000/svg" viewBox="0 0 69.33 97.88">
    <path d="M58.17,86.71H41.83a2.06,2.06,0,0,0-2,2,2,2,0,0,0,2,2H58.17a2.06,2.06,0,0,0,2-2A2,2,0,0,0,58.17,86.71Z" transform="translate(-15.33 -1.06)"/>
    <path d="M54.1,94.86H45.9a2.05,2.05,0,0,0-2,2,2,2,0,0,0,2,2H54.1a2.05,2.05,0,0,0,2-2A2,2,0,0,0,54.1,94.86Z" transform="translate(-15.33 -1.06)"/>
    <path d="M24.62,21.24a2,2,0,0,0,1.82-3.65l-8.16-4.08a2,2,0,0,0-1.82,3.65Z" transform="translate(-15.33 -1.06)"/>
    <path d="M73.56,17.59a2,2,0,0,0,1.82,3.65l8.16-4.08a2,2,0,1,0-1.82-3.65Z" transform="translate(-15.33 -1.06)"/>
    <path d="M56.33,10.34A2,2,0,1,0,60,12.17L64.06,4a2,2,0,1,0-3.65-1.82Z" transform="translate(-15.33 -1.06)"/>
    <path d="M40,12.17a2,2,0,0,0,3.65-1.82L39.59,2.19A2,2,0,0,0,35.94,4Z" transform="translate(-15.33 -1.06)"/>
    <path d="M60.2,82.63a2,2,0,0,0,2-2c0-6.36,1.86-10.74,6.8-18.28.93-1.41,1.4-2.14,1.86-2.84,3.9-6.07,5.62-10.27,5.62-15.58a26.51,26.51,0,0,0-53,0c0,5.31,1.72,9.52,5.62,15.59.45.7.92,1.42,1.85,2.83,4.94,7.55,6.8,11.93,6.8,18.28a2,2,0,0,0,2,2ZM34.37,60.07c-.93-1.42-1.39-2.12-1.83-2.8-3.52-5.47-5-9-5-13.39a22.43,22.43,0,0,1,44.86,0c0,4.34-1.46,7.91-5,13.38-.44.68-.9,1.39-1.84,2.81-4.83,7.38-7,12.18-7.41,18.48H41.78C41.41,72.26,39.21,67.45,34.37,60.07Z" transform="translate(-15.33 -1.06)"/>
</svg>
