<svg width="46px" height="40px" viewBox="0 0 46 40" version="1.1" xmlns="http://www.w3.org/2000/svg" xmlns:xlink="http://www.w3.org/1999/xlink">
    <path d="M42.763,20.758 L42.763,20.758 C44.131,22.707 44.942,25.076 44.942,27.641 C44.942,34.266 39.571,39.639 32.944,39.639 L16.946,39.639 C8.11,39.639 0.948,32.477 0.948,23.641 C0.948,14.805 8.11,7.643 16.946,7.643 C18.948,7.643 20.86,8.018 22.626,8.69 L22.626,8.69 C24.261,4.008 28.704,0.643 33.944,0.643 C34.699,0.643 35.435,0.721 36.151,0.855 C36.02,1.43 35.944,2.028 35.944,2.643 C35.944,7.061 39.525,10.642 43.942,10.642 C44.558,10.642 45.155,10.566 45.731,10.434 C45.864,11.151 45.942,11.887 45.942,12.642 C45.941,15.775 44.73,18.621 42.763,20.758 L42.763,20.758 Z M4.947,23.641 C4.947,30.268 10.318,35.639 16.945,35.639 L32.943,35.639 C37.361,35.639 40.942,32.057 40.942,27.641 C40.942,23.223 37.361,19.641 32.943,19.641 C31.343,19.641 29.86,20.123 28.609,20.932 C27.378,15.616 22.636,11.642 16.945,11.642 C10.318,11.642 4.947,17.014 4.947,23.641 L4.947,23.641 Z M24.496,9.545 L24.498,9.545 L24.496,9.545 L24.496,9.545 Z M32.155,4.85 C29.255,5.514 26.98,7.76 26.23,10.625 L26.23,10.625 C28.148,11.997 29.753,13.777 30.91,15.845 C31.574,15.732 32.247,15.64 32.943,15.64 C35.561,15.64 37.976,16.49 39.948,17.911 L39.948,17.911 C40.806,16.932 41.433,15.743 41.734,14.429 C36.881,13.525 33.059,9.706 32.155,4.85 L32.155,4.85 Z"/>
</svg>
