<svg width="44px" height="41px" viewBox="0 0 44 41" version="1.1" xmlns="http://www.w3.org/2000/svg" xmlns:xlink="http://www.w3.org/1999/xlink">
    <path d="M35.999,31.943 L35.999,27.562 C38.388,26.177 39.998,23.599 39.998,20.64 C39.998,16.224 36.417,12.642 31.999,12.642 C30.399,12.642 28.916,13.122 27.666,13.933 C26.435,8.616 21.692,4.642 16.001,4.642 C9.374,4.642 4.003,10.015 4.003,16.642 C4.003,20.191 5.553,23.371 8.003,25.566 L8.003,30.482 C3.226,27.714 0.003,22.56 0.003,16.642 C0.003,7.806 7.166,0.643 16.001,0.643 C22.005,0.643 27.23,3.955 29.966,8.847 C30.63,8.734 31.303,8.642 31.999,8.642 C38.626,8.642 43.998,14.015 43.998,20.64 C43.998,25.863 40.655,30.293 35.999,31.943 L35.999,31.943 Z M14.001,24.641 C15.106,24.641 16.001,25.537 16.001,26.641 C16.001,27.746 15.106,28.641 14.001,28.641 C12.897,28.641 12.002,27.746 12.002,26.641 C12.002,25.537 12.897,24.641 14.001,24.641 L14.001,24.641 Z M14.001,32.641 C15.106,32.641 16.001,33.536 16.001,34.641 C16.001,35.745 15.106,36.639 14.001,36.639 C12.897,36.639 12.002,35.744 12.002,34.641 C12.002,33.535 12.897,32.641 14.001,32.641 L14.001,32.641 Z M22.001,28.641 C23.105,28.641 24.001,29.536 24.001,30.641 C24.001,31.745 23.105,32.641 22.001,32.641 C20.896,32.641 20.001,31.745 20.001,30.641 C20.001,29.535 20.896,28.641 22.001,28.641 L22.001,28.641 Z M22.001,36.639 C23.105,36.639 24.001,37.535 24.001,38.639 C24.001,39.744 23.105,40.639 22.001,40.639 C20.896,40.639 20.001,39.744 20.001,38.639 C20.001,37.535 20.896,36.639 22.001,36.639 L22.001,36.639 Z M29.999,24.641 C31.104,24.641 31.999,25.537 31.999,26.641 C31.999,27.746 31.104,28.641 29.999,28.641 C28.895,28.641 28,27.746 28,26.641 C28,25.537 28.896,24.641 29.999,24.641 L29.999,24.641 Z M29.999,32.641 C31.104,32.641 31.999,33.536 31.999,34.641 C31.999,35.745 31.104,36.639 29.999,36.639 C28.895,36.639 28,35.744 28,34.641 C28,33.535 28.896,32.641 29.999,32.641 L29.999,32.641 Z"/>
</svg>
