<svg width="100px" height="99px" viewBox="0 0 100 99" version="1.1" xmlns="http://www.w3.org/2000/svg" xmlns:xlink="http://www.w3.org/1999/xlink">
    <path d="M93.633,13.099 C93.411,12.696 93.255,12.357 93.073,11.979 C93.229,11.198 93.346,10.195 93.177,9.075 C92.852,7.356 93.028,5.664 93.607,4.752 C94.688,3.033 97.11,2.278 100.001,1.887 C99.324,3.385 97.025,4.804 96.896,6.822 C96.818,8.332 97.04,10.234 96.459,11.145 C95.84,12.135 94.876,12.747 93.633,13.099 L93.633,13.099 Z"/>
    <path d="M95.195,36.849 C94.967,36.654 94.746,36.511 94.524,36.341 C94.055,35.977 93.574,35.651 93.098,35.403 C92.851,35.273 92.604,35.169 92.363,35.078 C91.901,34.895 91.445,34.739 91.003,34.635 C90.788,34.583 90.573,34.531 90.371,34.492 C89.883,34.414 89.421,34.375 88.991,34.362 C88.874,34.362 88.75,34.349 88.645,34.349 C88.034,34.349 87.493,34.414 87.096,34.466 C86.835,34.505 86.62,34.531 86.491,34.557 C86.438,34.57 86.308,34.596 86.282,34.596 C86.262,34.596 86.257,34.583 86.262,34.583 C86.764,33.776 97.018,25.221 92.311,17.721 C86.895,9.075 86.628,4.739 89.707,0 C89.583,0.182 80.104,4.792 80.801,10.469 C80.996,12.044 80.957,13.399 80.814,14.622 C80.789,14.87 80.769,15.13 80.723,15.377 C80.535,16.484 80.242,17.434 79.851,18.215 C79.779,18.345 79.701,18.437 79.622,18.554 C79.238,19.218 78.796,19.752 78.308,20.129 C78.223,20.194 78.158,20.285 78.074,20.337 C77.54,20.702 76.986,20.871 76.446,20.897 C76.387,20.91 76.342,20.962 76.29,20.962 C76.219,20.962 76.173,20.897 76.114,20.884 C75.56,20.845 75.033,20.702 74.591,20.324 C70.411,16.718 74.767,11.066 76.486,10.025 C75.861,9.543 75.106,9.192 74.305,8.931 C74.051,8.84 73.79,8.814 73.524,8.762 C72.963,8.632 72.404,8.528 71.825,8.502 C71.564,8.502 71.304,8.515 71.044,8.528 C69.924,8.58 68.798,8.75 67.834,9.179 C59.807,12.707 65.073,24.27 59.116,26.64 C58.713,26.796 58.342,26.874 58.01,26.874 C57.932,26.874 57.88,26.822 57.808,26.809 C57.62,26.796 57.451,26.731 57.281,26.653 C57.073,26.575 56.858,26.484 56.676,26.341 C56.533,26.224 56.403,26.094 56.285,25.938 C56.116,25.755 55.979,25.547 55.849,25.313 C55.745,25.13 55.647,24.948 55.562,24.753 C55.452,24.48 55.361,24.232 55.269,23.946 C55.205,23.738 55.139,23.529 55.087,23.308 C55.009,23.021 54.956,22.735 54.911,22.449 C54.865,22.228 54.826,22.032 54.8,21.824 C54.761,21.537 54.736,21.29 54.702,21.03 C54.689,20.848 54.663,20.678 54.657,20.509 C54.637,20.275 54.631,20.118 54.631,19.936 C54.624,19.806 54.611,19.663 54.611,19.572 C54.611,19.35 54.611,19.207 54.618,19.207 C53.427,20.483 52.47,21.759 51.623,23.022 C51.382,23.387 51.167,23.751 50.946,24.116 C50.373,25.08 49.891,26.03 49.507,26.994 C49.435,27.137 49.37,27.293 49.318,27.45 C49.246,27.619 49.149,27.802 49.09,27.971 C48.66,29.195 48.355,30.406 48.198,31.577 C48.165,31.799 48.178,32.007 48.159,32.215 C48.074,33.205 48.061,34.168 48.146,35.119 C48.179,35.457 48.218,35.809 48.27,36.147 C48.407,37.033 48.609,37.892 48.882,38.738 C48.953,38.972 49.006,39.207 49.084,39.428 C49.475,40.47 49.957,41.447 50.522,42.397 C50.666,42.631 50.841,42.853 50.998,43.1 C51.479,43.803 52.001,44.494 52.573,45.144 C52.795,45.392 53.01,45.639 53.251,45.886 C53.94,46.602 54.689,47.279 55.483,47.904 C55.594,47.982 55.685,48.073 55.783,48.152 C56.688,48.829 57.665,49.415 58.667,49.949 C58.96,50.105 59.267,50.249 59.565,50.391 C60.34,50.756 61.141,51.081 61.955,51.368 C62.267,51.485 62.58,51.602 62.899,51.68 C63.993,52.006 65.112,52.28 66.245,52.422 C66.395,52.448 66.545,52.436 66.694,52.461 C67.632,52.565 68.583,52.578 69.526,52.553 C70.314,52.539 71.102,52.422 71.889,52.305 C72.443,52.227 73.002,52.175 73.549,52.032 C73.641,52.019 73.725,51.968 73.822,51.941 C74.525,51.772 75.228,51.499 75.919,51.225 C76.434,51.03 76.947,50.886 77.449,50.625 C78.289,50.222 79.076,49.649 79.871,49.089 C80.281,48.802 80.704,48.594 81.101,48.269 C82.253,47.306 83.353,46.199 84.369,44.871 C84.916,44.168 85.502,43.569 86.114,43.022 C86.322,42.84 86.524,42.697 86.732,42.527 C87.162,42.189 87.591,41.876 88.035,41.589 C88.275,41.446 88.516,41.302 88.758,41.172 C89.188,40.938 89.611,40.716 90.04,40.534 C90.268,40.43 90.496,40.339 90.724,40.247 C91.193,40.065 91.642,39.922 92.084,39.791 C92.254,39.739 92.416,39.687 92.579,39.635 C93.178,39.479 93.751,39.362 94.266,39.283 C94.311,39.27 94.344,39.27 94.396,39.27 C94.872,39.192 95.294,39.153 95.666,39.127 C95.79,39.114 95.868,39.114 95.985,39.114 C96.134,39.101 96.317,39.088 96.447,39.088 C96.518,39.088 96.499,39.101 96.564,39.101 C96.903,39.114 97.143,39.127 97.163,39.153 C96.543,38.203 95.872,37.474 95.195,36.849 L95.195,36.849 Z"/>
    <path d="M46.217,41.667 C43.861,36.25 44.108,30.404 46.666,24.805 L43.834,21.966 L0,65.807 L10.97,65.807 L10.97,98.685 L38.372,98.685 L38.372,76.757 L49.316,76.757 L49.316,98.685 L76.718,98.685 L76.718,65.807 L87.682,65.807 L76.536,54.662 C74.147,55.521 71.647,56.094 68.991,56.094 C59.265,56.093 49.896,50.156 46.217,41.667 L46.217,41.667 Z"/>
</svg>
