<?xml version="1.0" encoding="UTF-8"?>
<svg width="50px" height="50px" viewBox="0 0 50 50" version="1.1" xmlns="http://www.w3.org/2000/svg" xmlns:xlink="http://www.w3.org/1999/xlink">
    <!-- Generator: Sketch 41.2 (35397) - http://www.bohemiancoding.com/sketch -->
    <title>Smoke &amp; Co Icon</title>
    <desc>Created with Sketch.</desc>
    <defs></defs>
    <g id="Symbols" stroke="none" stroke-width="1" fill="none" fill-rule="evenodd">
        <g id="Smoke-&amp;-Co-Icon" fill="#FFFFFF">
            <g id="Group-2">
                <path d="M46.3529703,6.48465347 C46.2430693,6.28514851 46.1658416,6.11732673 46.0757426,5.93019802 C46.1529703,5.54356436 46.2108911,5.0470297 46.1272277,4.49257426 C45.9663366,3.64158416 46.0534653,2.8039604 46.340099,2.35247525 C46.8752475,1.50148515 48.0742574,1.12772277 49.5054455,0.934158416 C49.170297,1.67574257 48.0321782,2.37821782 47.9683168,3.37722772 C47.929703,4.12475248 48.039604,5.06633663 47.7519802,5.51732673 C47.4455446,6.00742574 46.9683168,6.31039604 46.3529703,6.48465347 L46.3529703,6.48465347 Z" id="Shape"></path>
                <path d="M47.1262376,18.2420792 C47.0133663,18.1455446 46.9039604,18.0747525 46.7940594,17.9905941 C46.5618812,17.810396 46.3237624,17.6490099 46.0881188,17.5262376 C45.9658416,17.4618812 45.8435644,17.410396 45.7242574,17.3653465 C45.4955446,17.2747525 45.269802,17.1975248 45.0509901,17.1460396 C44.9445545,17.120297 44.8381188,17.0945545 44.7381188,17.0752475 C44.4965347,17.0366337 44.2678218,17.0173267 44.0549505,17.0108911 C43.9970297,17.0108911 43.9356436,17.0044554 43.8836634,17.0044554 C43.5811881,17.0044554 43.3133663,17.0366337 43.1168317,17.0623762 C42.9876238,17.0816832 42.8811881,17.0945545 42.8173267,17.1074257 C42.7910891,17.1138614 42.7267327,17.1267327 42.7138614,17.1267327 C42.7039604,17.1267327 42.7014851,17.120297 42.7039604,17.120297 C42.9524752,16.7207921 48.0287129,12.4856436 45.6985149,8.77277228 C43.0173267,4.49257426 42.8851485,2.3460396 44.4094059,0 C44.3480198,0.0900990099 39.6554455,2.37227723 40.000495,5.18267327 C40.0970297,5.96237624 40.0777228,6.63316832 40.0069307,7.23861386 C39.9945545,7.36138614 39.9846535,7.49009901 39.9618812,7.61237624 C39.8688119,8.16039604 39.7237624,8.63069307 39.530198,9.01732673 C39.4945545,9.08168317 39.4559406,9.12722772 39.4168317,9.18514851 C39.2267327,9.51386139 39.0079208,9.77821782 38.7663366,9.96485149 C38.7242574,9.9970297 38.6920792,10.0420792 38.650495,10.0678218 C38.3861386,10.2485149 38.1118812,10.3321782 37.8445545,10.3450495 C37.8153465,10.3514851 37.7930693,10.3772277 37.7673267,10.3772277 C37.7321782,10.3772277 37.7094059,10.3450495 37.680198,10.3386139 C37.4059406,10.3193069 37.1450495,10.2485149 36.9262376,10.0613861 C34.8569307,8.27623762 37.0133663,5.47821782 37.8643564,4.96287129 C37.5549505,4.72425743 37.1811881,4.55049505 36.7846535,4.42128713 C36.6589109,4.37623762 36.529703,4.36336634 36.3980198,4.33762376 C36.120297,4.27326733 35.8435644,4.22178218 35.5569307,4.20891089 C35.4277228,4.20891089 35.2990099,4.21534653 35.170297,4.22178218 C34.6158416,4.24752475 34.0584158,4.33168317 33.5811881,4.54405941 C29.6074257,6.29059406 32.2143564,12.0148515 29.2653465,13.1881188 C29.0658416,13.2653465 28.8821782,13.3039604 28.7178218,13.3039604 C28.6792079,13.3039604 28.6534653,13.2782178 28.6178218,13.2717822 C28.5247525,13.2653465 28.4410891,13.2331683 28.3569307,13.1945545 C28.2539604,13.1559406 28.1475248,13.1108911 28.0574257,13.040099 C27.9866337,12.9821782 27.9222772,12.9178218 27.8638614,12.8405941 C27.780198,12.75 27.7123762,12.6470297 27.6480198,12.5311881 C27.5965347,12.4405941 27.5480198,12.350495 27.5059406,12.2539604 C27.4514851,12.1188119 27.4064356,11.9960396 27.3608911,11.8544554 C27.3292079,11.7514851 27.2965347,11.6480198 27.2707921,11.5386139 C27.2321782,11.3965347 27.2059406,11.2549505 27.1836634,11.1133663 C27.1608911,11.0039604 27.1415842,10.9069307 27.1287129,10.8039604 C27.1094059,10.6618812 27.0970297,10.539604 27.080198,10.4108911 C27.0737624,10.3207921 27.0608911,10.2366337 27.0579208,10.1529703 C27.0480198,10.0371287 27.0450495,9.95940594 27.0450495,9.86930693 C27.0415842,9.8049505 27.0351485,9.73415842 27.0351485,9.68910891 C27.0351485,9.57920792 27.0351485,9.50841584 27.0386139,9.50841584 C26.4490099,10.140099 25.9752475,10.7717822 25.5559406,11.3970297 C25.4366337,11.5777228 25.330198,11.7579208 25.2207921,11.9386139 C24.9371287,12.4158416 24.6985149,12.8861386 24.5084158,13.3633663 C24.4727723,13.4341584 24.4405941,13.5113861 24.4148515,13.5891089 C24.3792079,13.6727723 24.3311881,13.7633663 24.3019802,13.8470297 C24.0891089,14.4529703 23.9381188,15.0524752 23.860396,15.6321782 C23.8440594,15.7420792 23.850495,15.8450495 23.8410891,15.9480198 C23.7990099,16.4381188 23.7925743,16.9148515 23.8346535,17.3856436 C23.8509901,17.5529703 23.870297,17.7272277 23.8960396,17.8945545 C23.9638614,18.3331683 24.0638614,18.7584158 24.1990099,19.1772277 C24.2341584,19.2930693 24.260396,19.4094059 24.2990099,19.5188119 C24.4925743,20.0346535 24.7311881,20.5183168 25.0108911,20.9886139 C25.0821782,21.1044554 25.1688119,21.2143564 25.2465347,21.3366337 C25.4846535,21.6846535 25.7430693,22.0267327 26.0262376,22.3485149 C26.1361386,22.4712871 26.2425743,22.5935644 26.3618812,22.7158416 C26.7029703,23.070297 27.0737624,23.4054455 27.4668317,23.7148515 C27.5217822,23.7534653 27.5668317,23.7985149 27.6153465,23.8376238 C28.0633663,24.1727723 28.5470297,24.4628713 29.0430693,24.7272277 C29.1881188,24.8044554 29.340099,24.8757426 29.4876238,24.9460396 C29.8712871,25.1267327 30.2678218,25.2876238 30.6707921,25.429703 C30.8252475,25.4876238 30.980198,25.5455446 31.1381188,25.5841584 C31.679703,25.7455446 32.2336634,25.8811881 32.7945545,25.9514851 C32.8688119,25.9643564 32.9430693,25.9584158 33.0168317,25.9707921 C33.4811881,26.0222772 33.9519802,26.0287129 34.4188119,26.0163366 C34.8089109,26.0094059 35.1990099,25.9514851 35.5886139,25.8935644 C35.8628713,25.8549505 36.139604,25.8292079 36.410396,25.7584158 C36.4559406,25.7519802 36.4975248,25.7267327 36.5455446,25.7133663 C36.8935644,25.629703 37.2415842,25.4945545 37.5836634,25.3589109 C37.8386139,25.2623762 38.0925743,25.1910891 38.3410891,25.0618812 C38.7569307,24.8623762 39.1465347,24.5787129 39.540099,24.3014851 C39.7430693,24.1594059 39.9524752,24.0564356 40.1490099,23.8955446 C40.7193069,23.4188119 41.2638614,22.8707921 41.7668317,22.2133663 C42.0376238,21.8653465 42.3277228,21.5688119 42.6306931,21.2980198 C42.7336634,21.2079208 42.8336634,21.1371287 42.9366337,21.0529703 C43.149505,20.8856436 43.3618812,20.7306931 43.5816832,20.5886139 C43.700495,20.5178218 43.819802,20.4465347 43.939604,20.3821782 C44.1524752,20.2663366 44.3618812,20.1564356 44.5742574,20.0663366 C44.6871287,20.0148515 44.8,19.969802 44.9128713,19.9242574 C45.1450495,19.8341584 45.3673267,19.7633663 45.5861386,19.6985149 C45.670297,19.6727723 45.750495,19.6470297 45.8311881,19.6212871 C46.1277228,19.5440594 46.4113861,19.4861386 46.6663366,19.4470297 C46.6886139,19.4405941 46.7049505,19.4405941 46.7306931,19.4405941 C46.9663366,19.4019802 47.1752475,19.3826733 47.3594059,19.369802 C47.4207921,19.3633663 47.4594059,19.3633663 47.5173267,19.3633663 C47.5910891,19.3569307 47.6816832,19.350495 47.7460396,19.350495 C47.7811881,19.350495 47.7717822,19.3569307 47.8039604,19.3569307 C47.9717822,19.3633663 48.0905941,19.369802 48.100495,19.3826733 C47.7935644,18.9123762 47.4613861,18.5514851 47.1262376,18.2420792 L47.1262376,18.2420792 Z" id="Shape"></path>
                <path d="M22.879703,20.6272277 C21.7133663,17.9455446 21.8356436,15.0514851 23.1019802,12.279703 L21.7,10.8742574 L0,32.5777228 L5.43069307,32.5777228 L5.43069307,48.8539604 L18.9960396,48.8539604 L18.9960396,37.9985149 L24.4138614,37.9985149 L24.4138614,48.8539604 L37.9792079,48.8539604 L37.9792079,32.5777228 L43.4069307,32.5777228 L37.8891089,27.060396 C36.7064356,27.4856436 35.4688119,27.7693069 34.1539604,27.7693069 C29.3391089,27.7688119 24.7009901,24.829703 22.879703,20.6272277 L22.879703,20.6272277 Z" id="Shape"></path>
            </g>
        </g>
    </g>
</svg>