<svg width="44px" height="39px" viewBox="0 0 44 39" version="1.1" xmlns="http://www.w3.org/2000/svg" xmlns:xlink="http://www.w3.org/1999/xlink">
    <path d="M33.998,32.461 L33.998,28.379 C37.446,27.488 39.998,24.367 39.998,20.641 C39.998,16.224 36.416,12.642 31.999,12.642 C30.398,12.642 28.915,13.122 27.665,13.933 C26.434,8.616 21.692,4.642 16.001,4.642 C9.374,4.642 4.002,10.015 4.002,16.642 C4.002,21.08 6.419,24.947 10.001,27.021 L10.001,31.466 C4.141,29.091 0.003,23.353 0.003,16.641 C0.003,7.806 7.165,0.642 16.001,0.642 C22.005,0.642 27.23,3.954 29.966,8.846 C30.63,8.733 31.302,8.641 31.999,8.641 C38.625,8.641 43.997,14.014 43.997,20.639 C43.997,26.586 39.671,31.506 33.998,32.461 L33.998,32.461 Z M15.072,26.641 C15.625,25.684 16.847,25.358 17.804,25.909 L20,27.176 L20,24.641 C20,23.537 20.896,22.641 22,22.641 C23.104,22.641 24,23.537 24,24.641 L24,27.176 L26.195,25.908 C27.152,25.357 28.375,25.683 28.926,26.64 C29.479,27.597 29.151,28.82 28.195,29.372 L25.999,30.64 L28.195,31.908 C29.151,32.461 29.479,33.683 28.926,34.64 C28.374,35.595 27.152,35.923 26.195,35.37 L24,34.104 L24,36.639 C24,37.744 23.104,38.639 22,38.639 C20.896,38.639 20,37.744 20,36.639 L20,34.104 L17.805,35.372 C16.848,35.925 15.625,35.597 15.073,34.642 C14.521,33.685 14.848,32.462 15.805,31.91 L18,30.641 L15.805,29.373 C14.848,28.82 14.521,27.598 15.072,26.641 L15.072,26.641 Z M22,32.641 C23.104,32.641 24,31.745 24,30.641 C24,29.536 23.104,28.641 22,28.641 C20.896,28.641 20,29.536 20,30.641 C20,31.744 20.896,32.641 22,32.641 L22,32.641 Z"/>
</svg>
