<svg width="16px" height="36px" viewBox="0 0 16 36" version="1.1" xmlns="http://www.w3.org/2000/svg">
    <path d="M8,35.997 C3.582,35.997 0.001,32.416 0.001,27.998 C0.001,25.973 0.76,24.129 2,22.72 L2,6.001 C2,2.688 4.687,0.002 8,0.002 C11.312,0.002 13.999,2.688 13.999,6.001 L13.999,22.72 C15.239,24.129 15.999,25.973 15.999,27.998 C15.999,32.416 12.417,35.997 8,35.997 L8,35.997 Z M9.999,24.553 L9.999,20.261 L9.999,10 L9.999,6.001 C9.999,4.897 9.103,4.001 8,4.001 C6.896,4.001 6,4.897 6,6.001 L6,10 L6,20.261 L6,24.553 C4.81,25.246 4,26.522 4,27.998 C4,30.207 5.791,31.997 8,31.997 C10.208,31.997 11.999,30.207 11.999,27.998 C11.999,26.521 11.189,25.246 9.999,24.553 L9.999,24.553 Z"/>
</svg>
