<?xml version="1.0" encoding="UTF-8"?>
<svg width="50px" height="50px" viewBox="0 0 50 50" version="1.1" xmlns="http://www.w3.org/2000/svg" xmlns:xlink="http://www.w3.org/1999/xlink">
    <!-- Generator: Sketch 41.2 (35397) - http://www.bohemiancoding.com/sketch -->
    <title>Train Icon</title>
    <desc>Created with Sketch.</desc>
    <defs></defs>
    <g id="Symbols" stroke="none" stroke-width="1" fill="none" fill-rule="evenodd">
        <g id="Train-Icon" fill="#FFFFFF">
            <path d="M42.2904198,34.4155617 C43.497431,33.2068012 43.3522398,26.8743659 43.3522398,26.8743659 C43.3522398,23.0084316 42.1924595,8.79718714 40.5498747,5.70269041 C38.9055407,2.60994297 29.7217601,0 25.17885,0 C20.6359399,0 11.4521593,2.60994297 9.80957454,5.70269041 C8.16698979,8.79718714 7.0054602,23.0084316 7.0054602,26.8743659 C7.0054602,26.8743659 6.86026901,33.205052 8.06728017,34.4155617 C8.86320782,35.2114893 11.924468,37.1811916 14.4749351,38.6540951 L7.92558755,50 L11.966451,50 L13.1437242,47.9603261 L37.2122265,47.9603261 L38.3894997,50 L42.4321124,50 L35.8827649,38.6540951 C38.433232,37.1811916 41.4944921,35.2114893 42.2904198,34.4155617 Z M38.8583098,26.3915614 C38.0308949,26.3915614 37.3609162,25.7198335 37.3609162,24.8941679 C37.3609162,24.0685023 38.0326442,23.3967743 38.8583098,23.3967743 C39.687474,23.3967743 40.3557034,24.0685023 40.3557034,24.8941679 C40.3557034,25.7198335 39.687474,26.3915614 38.8583098,26.3915614 Z M32.9142172,9.18552986 L39.5055477,9.18552986 C40.0758167,11.9231711 40.5831113,16.1477102 40.9172259,19.9156841 L32.9159664,19.9156841 L32.9159664,9.18552986 L32.9142172,9.18552986 Z M22.4114708,2.47874611 L27.9497278,2.47874611 L27.9497278,4.81055173 L22.4114708,4.81055173 L22.4114708,2.47874611 L22.4114708,2.47874611 Z M10.8574002,9.18552986 L17.4487307,9.18552986 L17.4487307,19.9156841 L9.4457219,19.9156841 C9.77808729,16.1477102 10.2853818,11.9231711 10.8574002,9.18552986 Z M11.5028887,26.3915614 C10.6737246,26.3915614 10.0054952,25.7198335 10.0054952,24.8941679 C10.0054952,24.0685023 10.6754738,23.3967743 11.5028887,23.3967743 C12.3303036,23.3967743 13.0002823,24.0685023 13.0002823,24.8941679 C13.0002823,25.7198335 12.3285544,26.3915614 11.5028887,26.3915614 Z M13.5320669,24.8924186 C13.5320669,24.0650037 14.2037949,23.395025 15.0294605,23.395025 C15.8586247,23.395025 16.526854,24.066753 16.526854,24.8924186 C16.526854,25.7180842 15.8568754,26.3898121 15.0294605,26.3898121 C14.2037949,26.3915614 13.5320669,25.7198335 13.5320669,24.8924186 Z M15.1659052,44.461743 L16.8977038,41.461708 L33.4617454,41.461708 L35.193544,44.461743 L15.1659052,44.461743 Z M33.8325952,24.8924186 C33.8325952,24.0650037 34.5025739,23.395025 35.3299888,23.395025 C36.1574037,23.395025 36.8273823,24.066753 36.8273823,24.8924186 C36.8273823,25.7180842 36.1556544,26.3898121 35.3299888,26.3898121 C34.5025739,26.3915614 33.8325952,25.7198335 33.8325952,24.8924186 Z" id="Shape"></path>
        </g>
    </g>
</svg>