<svg width="44px" height="34px" viewBox="0 0 44 34" version="1.1" xmlns="http://www.w3.org/2000/svg" xmlns:xlink="http://www.w3.org/1999/xlink">
    <path d="M38.499,13.501 C35.462,13.501 32.999,14.844 32.999,16.5 C32.999,14.844 30.538,13.501 27.499,13.501 C25.636,13.501 23.995,14.01 23.001,14.783 L23.001,23.499 L24.001,23.499 L24.001,27.499 C24.001,28.603 24.896,29.499 26.001,29.499 C27.105,29.499 27.999,28.603 27.999,27.499 C27.999,26.395 28.895,25.499 29.999,25.499 C31.104,25.499 31.999,26.395 31.999,27.499 C31.999,30.812 29.313,33.498 26.001,33.498 C22.687,33.498 20.001,30.812 20.001,27.499 L20.001,23.499 L21.001,23.499 L21.001,14.783 C20.007,14.01 18.366,13.501 16.501,13.501 C13.464,13.501 11.003,14.844 11.003,16.5 L11.003,16.5 C11.003,14.844 8.54,13.501 5.503,13.501 C2.466,13.501 0.003,14.844 0.003,16.5 C0.003,9.321 9.853,0.502 22.002,0.502 C34.151,0.502 43.997,9.321 43.997,16.5 C43.997,14.844 41.536,13.501 38.499,13.501 L38.499,13.501 Z"/>
</svg>
