<?xml version="1.0" encoding="UTF-8"?>
<svg width="50px" height="50px" viewBox="0 0 50 50" version="1.1" xmlns="http://www.w3.org/2000/svg" xmlns:xlink="http://www.w3.org/1999/xlink">
    <!-- Generator: Sketch 41.2 (35397) - http://www.bohemiancoding.com/sketch -->
    <title>WiFi Icon</title>
    <desc>Created with Sketch.</desc>
    <defs></defs>
    <g id="Symbols" stroke="none" stroke-width="1" fill="none" fill-rule="evenodd">
        <g id="WiFi-Icon" fill="#FFFFFF">
            <path d="M8.12895974,23.7412083 C7.0866544,24.805994 7.0866544,26.5388805 8.12895974,27.6141052 C9.17126507,28.6788909 10.8675659,28.6788909 11.9200899,27.6141052 C19.1344778,20.2441181 30.8757409,20.2441181 38.0901288,27.6141052 C38.6112814,28.1464981 39.295933,28.417914 39.9805845,28.417914 C40.6652361,28.417914 41.3498876,28.1464981 41.8710403,27.6141052 C42.9133456,26.5493196 42.9133456,24.8164331 41.8710403,23.7412083 C32.5720417,14.2312108 17.4279583,14.2312108 8.12895974,23.7412083 Z M15.363785,31.1320736 C14.3214797,32.1968593 14.3214797,33.9297458 15.363785,35.0049705 C16.4060903,36.0697562 18.1023912,36.0697562 19.1549152,35.0049705 C22.3737993,31.7062227 27.6262007,31.7062227 30.8450848,35.0049705 C31.3662375,35.5373633 32.050889,35.8087793 32.7355406,35.8087793 C33.4201921,35.8087793 34.1048437,35.5373633 34.6259963,35.0049705 C35.6683017,33.9401848 35.6683017,32.2072983 34.6259963,31.1425127 C29.3225015,25.7037545 20.6774985,25.7037545 15.363785,31.1320736 Z M25,44.6089197 C26.9696237,44.6089197 28.5663192,42.9777868 28.5663192,40.9656825 C28.5663192,38.9535781 26.9696237,37.3224452 25,37.3224452 C23.0303763,37.3224452 21.4336808,38.9535781 21.4336808,40.9656825 C21.4336808,42.9777868 23.0303763,44.6089197 25,44.6089197 Z M49.218271,16.2250742 C35.8624566,2.59164194 14.1375434,2.59164194 0.781729001,16.2250742 C-0.260576334,17.2898599 -0.260576334,19.0227463 0.781729001,20.0979711 C1.82403433,21.1627568 3.52033517,21.1627568 4.57285919,20.0979711 C15.8338443,8.58367112 34.1661557,8.58367112 45.4373595,20.0979711 C45.9585122,20.6303639 46.6431637,20.9017799 47.3278152,20.9017799 C48.0124668,20.9017799 48.6971183,20.6303639 49.218271,20.0979711 C50.2605763,19.0331854 50.2605763,17.3002989 49.218271,16.2250742 Z"></path>
        </g>
    </g>
</svg>